<svg xmlns="http://www.w3.org/2000/svg" xmlns:xlink="http://www.w3.org/1999/xlink" width="500" zoomAndPan="magnify" viewBox="0 0 375 374.999991" height="500" preserveAspectRatio="xMidYMid meet" version="1.0"><path fill="#edceff" d="M 200.371094 194.664062 C 357.527344 282.617188 240.449219 374.882812 191.519531 201.652344 C 240.449219 375 92.382812 357.527344 180.335938 200.371094 C 92.382812 357.527344 0.117188 240.449219 173.347656 191.519531 C 0 240.449219 17.472656 92.382812 174.628906 180.335938 C 17.472656 92.382812 134.550781 0.117188 183.480469 173.347656 C 134.550781 0 282.617188 17.472656 194.664062 174.628906 C 282.617188 17.472656 374.882812 134.550781 201.652344 183.480469 C 375 134.550781 357.527344 282.617188 200.371094 194.664062 Z M 200.371094 194.664062 " fill-opacity="1" fill-rule="nonzero"/><path fill="#fffed2" d="M 209.460938 187.558594 C 209.460938 188.277344 209.425781 188.992188 209.355469 189.703125 C 209.285156 190.417969 209.179688 191.128906 209.039062 191.832031 C 208.898438 192.535156 208.722656 193.230469 208.515625 193.914062 C 208.308594 194.601562 208.066406 195.277344 207.792969 195.941406 C 207.519531 196.601562 207.210938 197.25 206.875 197.882812 C 206.535156 198.515625 206.167969 199.128906 205.769531 199.726562 C 205.371094 200.324219 204.941406 200.898438 204.488281 201.453125 C 204.03125 202.007812 203.550781 202.539062 203.042969 203.042969 C 202.539062 203.550781 202.007812 204.03125 201.453125 204.488281 C 200.898438 204.941406 200.324219 205.371094 199.726562 205.769531 C 199.128906 206.167969 198.515625 206.535156 197.882812 206.875 C 197.25 207.210938 196.601562 207.519531 195.9375 207.792969 C 195.277344 208.066406 194.601562 208.308594 193.914062 208.515625 C 193.230469 208.722656 192.535156 208.898438 191.832031 209.039062 C 191.128906 209.179688 190.417969 209.285156 189.703125 209.355469 C 188.992188 209.425781 188.277344 209.460938 187.558594 209.460938 C 186.839844 209.460938 186.125 209.425781 185.410156 209.355469 C 184.699219 209.285156 183.988281 209.179688 183.285156 209.039062 C 182.582031 208.898438 181.886719 208.722656 181.199219 208.515625 C 180.515625 208.308594 179.839844 208.066406 179.175781 207.792969 C 178.515625 207.519531 177.867188 207.210938 177.234375 206.875 C 176.601562 206.535156 175.988281 206.167969 175.390625 205.769531 C 174.792969 205.371094 174.21875 204.941406 173.664062 204.488281 C 173.109375 204.03125 172.578125 203.550781 172.070312 203.042969 C 171.566406 202.539062 171.082031 202.007812 170.628906 201.453125 C 170.171875 200.898438 169.746094 200.324219 169.347656 199.726562 C 168.949219 199.128906 168.582031 198.515625 168.242188 197.882812 C 167.90625 197.25 167.597656 196.601562 167.324219 195.941406 C 167.050781 195.277344 166.808594 194.601562 166.601562 193.914062 C 166.390625 193.230469 166.21875 192.535156 166.078125 191.832031 C 165.9375 191.128906 165.832031 190.417969 165.761719 189.703125 C 165.691406 188.992188 165.65625 188.277344 165.65625 187.558594 C 165.65625 186.839844 165.691406 186.125 165.761719 185.410156 C 165.832031 184.699219 165.9375 183.988281 166.078125 183.285156 C 166.21875 182.582031 166.390625 181.886719 166.601562 181.199219 C 166.808594 180.515625 167.050781 179.839844 167.324219 179.175781 C 167.597656 178.515625 167.90625 177.867188 168.242188 177.234375 C 168.582031 176.601562 168.949219 175.988281 169.347656 175.390625 C 169.746094 174.792969 170.171875 174.21875 170.628906 173.664062 C 171.082031 173.109375 171.566406 172.578125 172.070312 172.070312 C 172.578125 171.566406 173.109375 171.082031 173.664062 170.628906 C 174.21875 170.171875 174.792969 169.746094 175.390625 169.347656 C 175.988281 168.949219 176.601562 168.582031 177.234375 168.242188 C 177.867188 167.90625 178.515625 167.597656 179.175781 167.324219 C 179.839844 167.050781 180.515625 166.808594 181.199219 166.601562 C 181.886719 166.390625 182.582031 166.21875 183.285156 166.078125 C 183.988281 165.9375 184.699219 165.832031 185.410156 165.761719 C 186.125 165.691406 186.839844 165.65625 187.558594 165.65625 C 188.277344 165.65625 188.992188 165.691406 189.703125 165.761719 C 190.417969 165.832031 191.128906 165.9375 191.832031 166.078125 C 192.535156 166.21875 193.230469 166.390625 193.914062 166.601562 C 194.601562 166.808594 195.277344 167.050781 195.9375 167.324219 C 196.601562 167.597656 197.25 167.90625 197.882812 168.242188 C 198.515625 168.582031 199.128906 168.949219 199.726562 169.347656 C 200.324219 169.746094 200.898438 170.171875 201.453125 170.628906 C 202.007812 171.082031 202.539062 171.566406 203.042969 172.070312 C 203.550781 172.578125 204.03125 173.109375 204.488281 173.664062 C 204.941406 174.21875 205.371094 174.792969 205.769531 175.390625 C 206.167969 175.988281 206.535156 176.601562 206.875 177.234375 C 207.210938 177.867188 207.519531 178.515625 207.792969 179.175781 C 208.066406 179.839844 208.308594 180.515625 208.515625 181.199219 C 208.722656 181.886719 208.898438 182.582031 209.039062 183.285156 C 209.179688 183.988281 209.285156 184.699219 209.355469 185.410156 C 209.425781 186.125 209.460938 186.839844 209.460938 187.558594 Z M 209.460938 187.558594 " fill-opacity="1" fill-rule="nonzero"/></svg>